<?xml version="1.0" encoding="iso-8859-1"?>
<!-- Generator: Adobe Illustrator 19.0.0, SVG Export Plug-In . SVG Version: 6.00 Build 0)  -->
<svg xmlns="http://www.w3.org/2000/svg" xmlns:xlink="http://www.w3.org/1999/xlink" version="1.1" id="Layer_1" x="0px" y="0px" viewBox="0 0 512.033 512.033" style="enable-background:new 0 0 512.033 512.033;" xml:space="preserve" width="512px" height="512px">
<g transform="translate(0 -1)">
	<g>
		<g>
			<path d="M68.283,453.284H59.75v-68.267c4.719,0,8.533-3.814,8.533-8.533c0-4.719-3.814-8.533-8.533-8.533v-68.267     c4.719,0,8.533-3.814,8.533-8.533s-3.814-8.533-8.533-8.533v-85.333h8.533c4.719,0,8.533-3.814,8.533-8.533V132.55l-51.2,51.2v5     c0,4.719,3.814,8.533,8.533,8.533h8.533v85.333c-4.719,0-8.533,3.814-8.533,8.533s3.814,8.533,8.533,8.533v68.267     c-4.719,0-8.533,3.814-8.533,8.533c0,4.719,3.814,8.533,8.533,8.533v68.267H34.15c-9.412,0-17.067,7.654-17.067,17.067v8.533     c0,9.412,7.654,17.067,17.067,17.067h8.533v8.533c0,4.719,3.814,8.533,8.533,8.533s8.533-3.814,8.533-8.533v-8.533h8.533     c9.412,0,17.067-7.654,17.067-17.067v-8.533C85.35,460.938,77.696,453.284,68.283,453.284z M34.15,478.884v-8.533h34.133     l0.017,8.533H34.15z" fill="#FFFFFF"/>
			<path d="M76.817,26.617c0-14.114-11.486-25.6-25.6-25.6s-25.6,11.486-25.6,25.6v90.334l51.2-51.2V26.617z" fill="#FFFFFF"/>
			<polygon points="76.817,89.884 25.617,141.084 25.617,159.618 76.817,108.418    " fill="#FFFFFF"/>
			<path d="M477.883,453.284h-8.533v-68.267c4.719,0,8.533-3.814,8.533-8.533c0-4.719-3.814-8.533-8.533-8.533v-68.267     c4.719,0,8.533-3.814,8.533-8.533s-3.814-8.533-8.533-8.533v-85.333h8.533c4.719,0,8.533-3.814,8.533-8.533V132.55l-51.2,51.2v5     c0,4.719,3.814,8.533,8.533,8.533h8.533v85.333c-4.719,0-8.533,3.814-8.533,8.533s3.814,8.533,8.533,8.533v68.267     c-4.719,0-8.533,3.814-8.533,8.533c0,4.719,3.814,8.533,8.533,8.533v68.267h-8.533c-9.412,0-17.067,7.654-17.067,17.067v8.533     c0,9.412,7.654,17.067,17.067,17.067h8.533v8.533c0,4.719,3.814,8.533,8.533,8.533s8.533-3.814,8.533-8.533v-8.533h8.533     c9.412,0,17.067-7.654,17.067-17.067v-8.533C494.95,460.938,487.296,453.284,477.883,453.284z M443.75,478.884v-8.533h34.133     l0.017,8.533H443.75z" fill="#FFFFFF"/>
			<path d="M486.417,26.617c0-14.114-11.486-25.6-25.6-25.6s-25.6,11.486-25.6,25.6v90.334l51.2-51.2V26.617z" fill="#FFFFFF"/>
			<polygon points="486.417,89.884 435.217,141.084 435.217,159.618 486.417,108.418    " fill="#FFFFFF"/>
			<path d="M148.921,170.224l53.956-133.094l-2.193-5.069c-2.423-5.649-5.879-10.615-9.975-14.95l-50.85,132.19L148.921,170.224z" fill="#FFFFFF"/>
			<polygon points="166.901,211.757 221.19,79.422 212.392,59.096 158.428,192.19    " fill="#FFFFFF"/>
			<path d="M176.437,6.651c-1.28-0.64-2.458-1.425-3.797-1.963c-12.706-5.077-26.615-4.907-39.194,0.478     c-12.561,5.393-22.281,15.36-27.366,28.049c-5.069,12.706-4.898,26.615,0.503,39.219l23.595,54.494L176.437,6.651z" fill="#FFFFFF"/>
			<path d="M310.884,286.584l21.828-50.406L279.49,101.36l-24.397,56.354l-24.431-56.422l-54.289,132.335l22.921,52.958     l-67.123,155.042c-5.385,12.578-5.564,26.487-0.486,39.194c5.086,12.689,14.797,22.656,27.375,28.041     c6.485,2.782,13.312,4.173,20.164,4.173c6.426,0,12.868-1.22,19.021-3.686c12.689-5.077,22.656-14.797,28.032-27.341     l28.817-66.56l28.809,66.526c5.385,12.578,15.352,22.298,28.041,27.375c6.153,2.466,12.587,3.686,19.012,3.686     c6.852,0,13.696-1.391,20.173-4.173c25.95-11.127,38.016-41.284,26.88-67.26L310.884,286.584z M229.655,409.14l-26.897,62.754     c-4.156,9.702-13.628,15.514-23.569,15.514c-3.354,0-6.775-0.666-10.052-2.074c-4.326-1.852-6.34-6.869-4.48-11.196     c1.852-4.352,6.904-6.366,11.204-4.489c4.344,1.843,9.353-0.145,11.213-4.48l26.897-62.746c1.86-4.343,6.895-6.357,11.204-4.48     C229.51,399.804,231.516,404.813,229.655,409.14z M253.037,345.925c-2.048,0.819-4.198,1.229-6.349,1.229     c-2.287,0-4.574-0.461-6.741-1.391l-15.599-6.699c-4.198-1.801-7.45-5.12-9.148-9.361c-1.698-4.25-1.638-8.9,0.154-13.099     l23.526-54.861c5.564-12.971,20.651-19.012,33.613-13.44h0.009c6.281,2.688,11.136,7.672,13.679,14.02     c2.534,6.349,2.449,13.312-0.247,19.601l-23.518,54.852C260.614,340.984,257.286,344.227,253.037,345.925z M341.041,485.334     c-3.277,1.408-6.682,2.065-10.044,2.065c-9.941,0-19.405-5.803-23.56-15.497l-26.906-62.763     c-1.86-4.326,0.154-9.335,4.489-11.196c4.292-1.886,9.336,0.137,11.196,4.48l26.897,62.754c1.852,4.309,6.878,6.323,11.213,4.471     c4.292-1.886,9.352,0.137,11.196,4.489C347.381,478.465,345.376,483.482,341.041,485.334z" fill="#FFFFFF"/>
			<path d="M376.733,5.176c-12.561-5.393-26.487-5.564-39.194-0.495c-1.903,0.768-3.618,1.835-5.393,2.799l48.546,117.871     l22.921-52.949C414.74,46.46,402.674,16.304,376.733,5.176z" fill="#FFFFFF"/>
			<path d="M371.229,147.208l-52.975-128.64c-3.516,4.002-6.588,8.422-8.747,13.457l-1.784,4.113l53.163,134.946L371.229,147.208z" fill="#FFFFFF"/>
			<polygon points="351.284,193.274 298.121,58.328 289.084,79.2 342.307,214.018    " fill="#FFFFFF"/>
			<path d="M265.768,263.983c-1.084-0.469-2.227-0.683-3.345-0.683c-3.302,0-6.468,1.946-7.859,5.18l-23.518,54.852l15.633,6.741     l23.569-54.869c0.905-2.099,0.93-4.429,0.085-6.545C269.48,266.543,267.867,264.887,265.768,263.983z" fill="#FFFFFF"/>
		</g>
	</g>
</g>
<g>
</g>
<g>
</g>
<g>
</g>
<g>
</g>
<g>
</g>
<g>
</g>
<g>
</g>
<g>
</g>
<g>
</g>
<g>
</g>
<g>
</g>
<g>
</g>
<g>
</g>
<g>
</g>
<g>
</g>
</svg>
