<svg xmlns="http://www.w3.org/2000/svg" viewBox="0 0 160 102.79"><defs><style>.cls-1{fill:#fff;}</style></defs><title>biaslon_w</title><g id="Layer_2" data-name="Layer 2"><g id="Layer_1-2" data-name="Layer 1"><path class="cls-1" d="M104,84,93,57c-5-4-11,0-11,0C75,68,53,76,53,76L44,50,71,26l-3-4L42,43l-2-6L77,5,74,0,0,62v8.5L34,42l3,7L0,78.75V87.5L29,64l4,13L23,83c-10,5-8,13-8,13,2,10,14,6,14,6,21,0,56-24,56-24l9,19c2,3,8,2,8,2l30-6-2-11ZM41,81,34,59l6-4,8,24ZM160,64v6H137v6H125v1H115v1h-7V64ZM94,49a10,10,0,1,1,10,10A10,10,0,0,1,94,49Z"/></g></g></svg>