<svg xmlns="http://www.w3.org/2000/svg" viewBox="0 0 143 132"><title>cross</title><g id="Layer_2" data-name="Layer 2"><g id="Layer_1-2" data-name="Layer 1"><path d="M133,52l10-17-5-7s-18,7-34-2c0,0,7,15,13,14,0,0,14,1,16-2l-6,12S96,35,91,22c0,0-3-4-7-1,0,0-46,37-49,39s-1,10,0,10c0,0,3,4,7,3l1,1L33,89,11,84,8,90l20,5-5,9L0,99v7l85,22,5-4L44,111l7-10,56,15-3,11,3,5,35-78S133,54,133,52ZM37,109l-7-2,5-10,9,3ZM48,94l-8-3L50,76l9,2Zm7,1L65,80l9,2L64,98Zm55,15L70,99,80,84l8,2c7-1,8-6,8-6,2-8-5-10-5-10L59,60,86,38c5,9,34,22,34,22L99,94l5,5,23-37a15.77,15.77,0,0,0,4,1ZM93,10.5A10.5,10.5,0,1,1,103.5,21,10.5,10.5,0,0,1,93,10.5Z"/></g></g></svg>